<svg xmlns="http://www.w3.org/2000/svg" xmlns:xlink="http://www.w3.org/1999/xlink" version="1.1" x="0px" y="0px" viewBox="0 0 100 100" enable-background="new 0 0 100 100" xml:space="preserve" fill="#fffff2"><path d="M86.596,53.153h-0.002c-14.891,0.334-22.245,0.446-25.469,0.482c-0.784-4.346-4.012-7.816-7.571-9.277l-0.072-1.781  l6.521-0.822c0.822-0.104,1.404-0.854,1.301-1.676c-0.104-0.823-0.859-1.406-1.676-1.301l-6.267,0.79l-0.139-3.431  c0-1.776-1.444-3.221-3.221-3.221s-3.222,1.444-3.22,3.16l-0.141,3.492l-6.267-0.791c-0.821-0.105-1.572,0.478-1.676,1.301  c-0.104,0.822,0.479,1.572,1.301,1.676l6.52,0.822l-0.071,1.781c-3.561,1.459-6.788,4.932-7.572,9.277  c-3.223-0.037-10.586-0.148-25.553-0.483c-2.05,0-3.717,1.689-3.717,3.767c0,2.02,1.58,3.639,3.676,3.767  c0.835,0.051,1.633,0.099,2.42,0.146c-0.002,0.055-0.017,0.106-0.017,0.162c0,2.419,1.968,4.388,4.388,4.388  c2.301,0,4.172-1.786,4.353-4.041c1.079,0.061,2.108,0.118,3.079,0.172c-0.02,0.178-0.055,0.353-0.055,0.536  c0,2.775,2.259,5.034,5.035,5.034s5.035-2.259,5.035-5.034c0-0.011-0.003-0.021-0.003-0.031c1.253,0.056,2.295,0.099,3.156,0.131  c2.151,2.975,5.749,4.512,9.326,4.512s7.177-1.536,9.327-4.512c0.859-0.032,1.904-0.075,3.157-0.131  c0,0.011-0.003,0.021-0.003,0.031c0,2.775,2.259,5.034,5.035,5.034s5.035-2.259,5.035-5.034c0-0.184-0.035-0.358-0.055-0.536  c0.971-0.054,2-0.111,3.079-0.172c0.181,2.255,2.052,4.041,4.352,4.041c2.42,0,4.389-1.969,4.389-4.388  c0-0.056-0.015-0.107-0.017-0.162c0.787-0.048,1.585-0.096,2.42-0.146c2.096-0.128,3.676-1.747,3.676-3.767  C90.395,54.843,88.729,53.153,86.596,53.153z M20.072,62.382c-0.766,0-1.388-0.622-1.388-1.388c0-0.764,0.622-1.386,1.388-1.386  s1.388,0.622,1.388,1.386C21.46,61.76,20.838,62.382,20.072,62.382z M32.484,64.083c-1.122,0-2.035-0.912-2.035-2.034  c0-1.123,0.913-2.036,2.035-2.036s2.035,0.913,2.035,2.036C34.52,63.171,33.606,64.083,32.484,64.083z M36.434,58.962  c-0.922-1.178-2.341-1.949-3.949-1.949c-1.431,0-2.717,0.606-3.634,1.567c-1.619-0.087-3.407-0.187-5.356-0.296  c-0.804-1.013-2.031-1.676-3.422-1.676c-1.213,0-2.313,0.496-3.107,1.294c-1.125-0.066-2.281-0.136-3.5-0.211  c-0.428-0.026-0.859-0.3-0.859-0.772c0-0.415,0.328-0.766,0.733-0.766c0.001,0,0.001,0,0.001,0  c14.729,0.33,22.093,0.443,25.389,0.481c0.066,0.872,0.217,1.688,0.445,2.449C38.376,59.051,37.465,59.011,36.434,58.962z   M49.779,36.138c0-0.245,0.441-0.306,0.443,0.061l0.3,7.436c-0.175-0.012-0.351-0.032-0.523-0.032s-0.348,0.021-0.521,0.032  L49.779,36.138z M49.999,63.66c-4.007,0-8.319-2.51-8.319-8.021c0-5.242,4.969-9.037,8.319-9.037s8.321,3.795,8.321,9.037  C58.32,61.15,54.007,63.66,49.999,63.66z M67.516,64.083c-1.122,0-2.035-0.912-2.035-2.034c0-1.123,0.913-2.036,2.035-2.036  s2.035,0.913,2.035,2.036C69.551,63.171,68.638,64.083,67.516,64.083z M79.927,62.382c-0.765,0-1.387-0.622-1.387-1.388  c0-0.764,0.622-1.386,1.387-1.386c0.766,0,1.389,0.622,1.389,1.386C81.315,61.76,80.692,62.382,79.927,62.382z M86.535,57.691  c-1.221,0.074-2.375,0.144-3.5,0.211c-0.796-0.799-1.895-1.294-3.108-1.294c-1.391,0-2.617,0.662-3.421,1.675  c-1.953,0.111-3.735,0.21-5.356,0.297c-0.918-0.961-2.203-1.567-3.634-1.567c-1.608,0-3.027,0.771-3.949,1.95  c-1.031,0.048-1.943,0.088-2.74,0.121c0.228-0.761,0.379-1.577,0.445-2.449c3.302-0.038,10.678-0.151,25.406-0.482  c0.389,0,0.717,0.352,0.717,0.767C87.395,57.392,86.963,57.665,86.535,57.691z M54.313,50.057c-2.401,0.788-6.229,0.786-8.624,0  c-0.787-0.264-1.635,0.169-1.894,0.957c-0.259,0.786,0.169,1.634,0.956,1.893c1.515,0.498,3.33,0.761,5.249,0.761  c1.917,0,3.731-0.263,5.248-0.761c0.787-0.258,1.216-1.105,0.958-1.893C55.947,50.226,55.098,49.793,54.313,50.057z"/></svg>
