<svg xmlns="http://www.w3.org/2000/svg" xmlns:xlink="http://www.w3.org/1999/xlink" version="1.1" x="0px" y="0px" viewBox="0 0 100 100" enable-background="new 0 0 100 100" xml:space="preserve" fill="#fffff2"><path d="M70.404,57.293c-0.069-0.441-0.333-0.83-0.718-1.057c-0.385-0.229-0.853-0.271-1.273-0.121  c-0.084,0.031-8.525,3.033-18.412,3.033c-9.313,0-18.352-3.014-18.442-3.043c-0.419-0.143-0.88-0.092-1.257,0.137  c-0.378,0.23-0.637,0.613-0.705,1.051l-1.021,6.473c-0.065,0.418,0.048,0.846,0.313,1.174c0.266,0.33,0.658,0.533,1.08,0.557  c8.814,0.52,15.719,7.848,15.719,16.682c0,0.828,0.672,1.5,1.5,1.5h5.623c0.829,0,1.5-0.672,1.5-1.5  c0-8.834,6.905-16.162,15.72-16.682c0.423-0.023,0.814-0.227,1.08-0.557c0.265-0.328,0.379-0.756,0.313-1.174L70.404,57.293z   M51.368,80.678h-2.736c-0.695-9.193-7.734-16.709-16.846-18.01l0.505-3.201c3.151,0.91,10.251,2.682,17.71,2.682  c7.811,0,14.64-1.734,17.713-2.656l0.5,3.176C59.104,63.969,52.064,71.484,51.368,80.678z M38.552,44.287  c3.137,0,6.006-1.254,8.098-3.333h6.701c2.092,2.079,4.961,3.333,8.098,3.333c6.341,0,11.5-5.159,11.5-11.5  c0-3.266-1.404-6.378-3.848-8.563c-0.002-0.002-7.461-7.462-7.461-7.462c-0.586-0.586-1.535-0.586-2.121,0s-0.586,1.535,0,2.121  l6.861,6.859c-1.318,4.896-5.794,8.379-10.934,8.379c-1.113,0-2.221-0.165-3.291-0.49c-0.017-0.005-0.383-0.061-0.406-0.062  c-0.01,0-0.02-0.003-0.029-0.003H48.28c-0.01,0-0.02,0.003-0.029,0.003c-0.023,0.001-0.39,0.057-0.406,0.062  c-1.07,0.325-2.178,0.49-3.291,0.49c-5.14,0-9.615-3.482-10.934-8.379l6.861-6.859c0.586-0.586,0.586-1.535,0-2.121  s-1.535-0.586-2.121,0c0,0-7.459,7.46-7.461,7.462c-2.443,2.186-3.848,5.298-3.848,8.563C27.052,39.127,32.211,44.287,38.552,44.287  z M55.446,37.121c5.854,0,11.032-3.567,13.223-8.802c0.828,1.331,1.279,2.876,1.279,4.468c0,4.687-3.813,8.5-8.5,8.5  c-3.107,0-5.867-1.655-7.35-4.229C54.546,37.099,54.996,37.121,55.446,37.121z M49.4,36.566H50.6  c0.165,0.479,0.36,0.942,0.583,1.388h-2.365C49.04,37.508,49.235,37.045,49.4,36.566z M31.331,28.319  c2.19,5.234,7.369,8.802,13.223,8.802c0.45,0,0.9-0.021,1.348-0.063c-1.482,2.574-4.242,4.229-7.35,4.229  c-4.687,0-8.5-3.813-8.5-8.5C30.052,31.195,30.503,29.65,31.331,28.319z"/></svg>
