<svg xmlns="http://www.w3.org/2000/svg" xmlns:xlink="http://www.w3.org/1999/xlink" version="1.1" x="0px" y="0px" viewBox="0 0 100 100" enable-background="new 0 0 100 100" xml:space="preserve" fill="#fffff2"><path d="M72.824,49.402c-5.58,0-8.155-0.497-9.503-1.834L44.155,28.543c-0.011-0.011-0.025-0.016-0.036-0.026  c-0.083-0.078-0.176-0.146-0.278-0.204c-0.025-0.015-0.05-0.031-0.076-0.044c-0.018-0.009-0.033-0.021-0.051-0.029  c-0.104-0.047-0.211-0.079-0.319-0.1c-0.014-0.003-0.028-0.003-0.043-0.005c-0.121-0.021-0.241-0.025-0.36-0.016  c-0.025,0.001-0.049,0.002-0.074,0.005c-0.132,0.017-0.262,0.048-0.385,0.098c-0.006,0.002-0.012,0.002-0.018,0.005  c-6.075,2.57-20.568,1.518-20.714,1.508c-0.413-0.029-0.826,0.112-1.132,0.396c-0.306,0.284-0.48,0.682-0.48,1.1  c0,10.068-0.761,13.551-1.496,16.919c-0.706,3.232-1.372,6.285-1.372,14.261v7.982c0,0.828,0.671,1.5,1.5,1.5h20.455  c0.829,0,1.5-0.672,1.5-1.5v-2.49h4.07l8.493,3.856c0.194,0.088,0.406,0.134,0.62,0.134h27.223c0.828,0,1.5-0.672,1.5-1.5V59.26  C82.681,53.824,78.259,49.402,72.824,49.402z M43.467,32.087l17.002,16.877c-1.191,2.25-3.431,3.278-5.293,3.278h-4.71  c0.683-1.68,0.345-3.681-1.014-5.042c-0.003-0.003-0.008-0.004-0.012-0.008c-0.003-0.003-0.004-0.007-0.007-0.011L38.758,36.868  C40.554,35.729,42.179,34.183,43.467,32.087z M47.331,51.648c-0.367,0.366-0.801,0.594-1.133,0.594H28.094  c-0.371-3.197-0.429-7.228,0.144-12.329c2.442-0.162,5.136-0.588,7.694-1.605L47.329,49.32  C47.97,49.964,47.971,51.009,47.331,51.648z M23.181,32.822c3.27,0.167,10.812,0.38,16.541-0.713  c-4.483,5.114-12.161,4.972-16.635,4.866C23.135,35.731,23.168,34.364,23.181,32.822z M21.623,48.789  c0.499-2.285,1.009-4.623,1.306-8.816c0.004,0,0.008,0,0.013,0c0.674,0.017,1.44,0.034,2.269,0.035  c-1.144,10.783,0.487,17.172,1.852,20.902h-6.733C20.407,54.364,20.998,51.648,21.623,48.789z M37.774,68.893H20.319v-0.99h17.455  V68.893z M79.681,68.893H54.282l-2.181-0.99h27.579V68.893z M79.681,64.902H20.319V63.91h59.361V64.902z M79.681,60.91H30.273  c-0.561-1.402-1.215-3.223-1.71-5.668h26.613c2.655,0,5.808-1.374,7.64-4.355c2.015,1.096,4.973,1.516,10.009,1.516  c3.78,0,6.856,3.076,6.856,6.857V60.91z M55.902,49.457c0.792,0,1.434-0.641,1.434-1.434s-0.642-1.434-1.434-1.434  c-0.793,0-1.435,0.641-1.435,1.434S55.109,49.457,55.902,49.457z M44.747,38.279c0.792,0,1.435-0.643,1.435-1.434  c0-0.793-0.643-1.436-1.435-1.436c-0.793,0-1.435,0.643-1.435,1.436C43.312,37.637,43.954,38.279,44.747,38.279z M48.465,42.006  c0.793,0,1.435-0.643,1.435-1.435s-0.642-1.435-1.435-1.435c-0.792,0-1.434,0.643-1.434,1.435S47.673,42.006,48.465,42.006z   M52.184,45.731c0.792,0,1.435-0.642,1.435-1.435c0-0.792-0.643-1.434-1.435-1.434s-1.435,0.642-1.435,1.434  C50.749,45.09,51.392,45.731,52.184,45.731z"/></svg>
