<svg xmlns="http://www.w3.org/2000/svg" xmlns:xlink="http://www.w3.org/1999/xlink" version="1.1" x="0px" y="0px" viewBox="0 0 100 100" enable-background="new 0 0 100 100" xml:space="preserve" fill="#fffff2"><path d="M49.999,42.574c-7.393,0-13.406,6.016-13.406,13.409c0,7.395,6.014,13.408,13.406,13.408  c7.394,0,13.408-6.014,13.408-13.408C63.407,48.589,57.393,42.574,49.999,42.574z M49.999,66.391  c-5.738,0-10.406-4.668-10.406-10.408c0-5.739,4.668-10.409,10.406-10.409c5.74,0,10.408,4.67,10.408,10.409  C60.407,61.723,55.739,66.391,49.999,66.391z M49.999,47.282c-4.797,0-8.701,3.904-8.701,8.701c0,0.828,0.672,1.5,1.5,1.5  c0.829,0,1.5-0.672,1.5-1.5c0-3.143,2.559-5.701,5.701-5.701c0.829,0,1.5-0.672,1.5-1.5S50.828,47.282,49.999,47.282z   M80.728,36.646c-0.577-3.32-3.473-5.856-6.957-5.856H59.114v-1.872c0-2.046-1.664-3.711-3.711-3.711H44.597  c-2.047,0-3.713,1.665-3.713,3.711v1.872h-7.09v-0.872c0-2.046-1.664-3.711-3.711-3.711H28.44c-2.047,0-3.711,1.665-3.711,3.711  v1.036c-2.79,0.605-4.966,2.862-5.456,5.692c-1.243,0.539-2.115,1.775-2.115,3.214c0,1.394,0.822,2.589,2.004,3.153v22.745  c0,3.896,3.17,7.068,7.067,7.068h15.445c2.514,1.248,5.334,1.967,8.324,1.967c2.992,0,5.812-0.719,8.325-1.967h15.446  c3.897,0,7.068-3.172,7.068-7.068V43.013c1.18-0.564,2.004-1.76,2.004-3.153C82.843,38.421,81.97,37.185,80.728,36.646z   M43.884,28.917c0-0.392,0.32-0.711,0.713-0.711h10.807c0.393,0,0.711,0.319,0.711,0.711v1.872h-12.23V28.917z M27.729,29.917  c0-0.392,0.318-0.711,0.711-0.711h1.643c0.393,0,0.711,0.319,0.711,0.711v0.872h-3.064V29.917z M22.161,43.364h13.93  c-3.035,3.341-4.902,7.761-4.902,12.619c0,2.973,0.712,5.775,1.944,8.275H22.161V43.364z M26.229,69.826  c-1.713,0-3.174-1.066-3.773-2.568h12.522c0.697,0.928,1.476,1.785,2.329,2.568H26.229z M49.999,71.793  c-8.717,0-15.811-7.092-15.811-15.811c0-8.717,7.094-15.81,15.811-15.81c8.719,0,15.811,7.093,15.811,15.81  C65.81,64.701,58.718,71.793,49.999,71.793z M73.771,69.826H62.691c0.853-0.783,1.632-1.641,2.329-2.568h12.523  C76.944,68.76,75.483,69.826,73.771,69.826z M77.839,64.258H66.866c1.232-2.5,1.943-5.303,1.943-8.275  c0-4.857-1.867-9.278-4.901-12.619h13.931V64.258z M77.839,40.364H60.468c-2.995-2.014-6.596-3.191-10.469-3.191  c-3.871,0-7.473,1.178-10.467,3.191H22.161v-2.508c0-2.242,1.825-4.066,4.068-4.066h47.541c2.243,0,4.068,1.824,4.068,4.066V40.364z  "/></svg>
