<svg xmlns="http://www.w3.org/2000/svg" xmlns:xlink="http://www.w3.org/1999/xlink" version="1.1" x="0px" y="0px" viewBox="0 0 100 100" enable-background="new 0 0 100 100" xml:space="preserve" fill="#fffff2"><path d="M56.16,29.87v-1.057h3.131c0.828,0,1.5-0.671,1.5-1.5v-5.625c0-2.39-1.945-4.334-4.336-4.334h-12.91  c-2.39,0-4.334,1.944-4.334,4.334v5.625c0,0.829,0.671,1.5,1.5,1.5h3.131v1.057c-11.79,2.79-20.592,13.396-20.592,26.027  c0,14.75,12,26.75,26.75,26.75s26.75-12,26.75-26.75C76.75,43.266,67.949,32.66,56.16,29.87z M42.211,25.813v-4.125  c0-0.736,0.599-1.334,1.334-1.334h12.91c0.736,0,1.336,0.599,1.336,1.334v4.125H56.16v-0.875c0-0.829-0.672-1.5-1.5-1.5h-9.318  c-0.829,0-1.5,0.671-1.5,1.5v0.875H42.211z M53.16,26.438v2.901c-1.037-0.123-2.09-0.193-3.16-0.193  c-1.069,0-2.122,0.07-3.158,0.193v-2.901H53.16z M50,79.646c-13.096,0-23.75-10.654-23.75-23.75c0-13.096,10.654-23.75,23.75-23.75  S73.75,42.8,73.75,55.896C73.75,68.992,63.096,79.646,50,79.646z M51.5,36.023c0-0.829-0.672-1.5-1.5-1.5  c-11.785,0-21.373,9.588-21.373,21.374c0,0.828,0.671,1.5,1.5,1.5s1.5-0.672,1.5-1.5c0-10.131,8.242-18.374,18.373-18.374  C50.828,37.523,51.5,36.852,51.5,36.023z M69.873,54.396c-0.828,0-1.5,0.672-1.5,1.5c0,10.131-8.242,18.373-18.373,18.373  c-0.829,0-1.5,0.672-1.5,1.5s0.671,1.5,1.5,1.5c11.785,0,21.373-9.588,21.373-21.373C71.373,55.068,70.701,54.396,69.873,54.396z   M55.52,60.6l5.718-13.858c0.14-0.228,0.22-0.496,0.22-0.783c0-0.824-0.664-1.494-1.487-1.5c-0.214-0.001-0.425,0.035-0.627,0.123  l-14.048,5.795c-0.369,0.153-0.662,0.446-0.814,0.815l-5.779,14.01c-0.246,0.529-0.165,1.172,0.241,1.627  c0.052,0.059,0.107,0.113,0.167,0.162c0.276,0.229,0.615,0.342,0.954,0.342c0.015,0,0.03,0,0.045,0  c0.249-0.004,0.483-0.068,0.688-0.18l13.909-5.738C55.074,61.262,55.367,60.969,55.52,60.6z M42.826,63.07l4.19-10.158l10.16-4.191  l-4.191,10.158L42.826,63.07z M48.77,54.666c-0.678,0.68-0.678,1.779,0,2.457c0.68,0.68,1.779,0.68,2.459,0  c0.678-0.678,0.678-1.777,0-2.457C50.549,53.988,49.449,53.988,48.77,54.666z"/></svg>
