<svg xmlns="http://www.w3.org/2000/svg" xmlns:xlink="http://www.w3.org/1999/xlink" version="1.1" x="0px" y="0px" viewBox="0 0 100 100" enable-background="new 0 0 100 100" xml:space="preserve" fill="#fffff2"><path d="M73.773,48.531l-1.91-7.162c-2.17-8.134-6.769-12.613-12.949-12.613c-2.038,0-3.631,0.445-5.036,0.838  c-1.259,0.354-2.448,0.686-3.88,0.686c-1.431,0-2.619-0.332-3.877-0.685c-1.406-0.394-2.998-0.839-5.037-0.839  c-6.181,0-10.779,4.479-12.949,12.613l-1.91,7.162c-9.303,2.348-14.424,5.897-14.424,10.045c0,8.229,19.682,12.669,38.199,12.669  s38.199-4.44,38.199-12.669C88.199,54.43,83.078,50.879,73.773,48.531z M28.985,49.819c4.679,2.563,16.72,2.805,21.013,2.805  c4.292,0,16.334-0.242,21.014-2.805l1.825,6.844c-1.52,1.076-9.897,2.815-22.894,2.815c-12.742,0-21.046-1.671-22.801-2.751  L28.985,49.819z M41.084,31.756c1.627,0,2.891,0.354,4.229,0.729c1.397,0.391,2.844,0.795,4.686,0.795  c1.844,0,3.29-0.404,4.688-0.796c1.337-0.374,2.601-0.728,4.228-0.728c6.017,0,8.787,5.648,10.051,10.387l1.188,4.453  c-0.092,0.142-0.161,0.299-0.201,0.469c-1.129,0.913-7.984,2.56-19.953,2.56c-11.968,0-18.822-1.647-19.951-2.561  c-0.04-0.169-0.109-0.327-0.201-0.468l1.188-4.453C32.297,37.404,35.066,31.756,41.084,31.756z M50,68.245  c-20.146,0-35.199-5.104-35.199-9.669c0-1.786,2.826-4.511,10.531-6.702l-1.258,4.716c-0.033,0.126-0.051,0.256-0.051,0.387  c0,5.236,21.592,5.502,25.92,5.502c4.014,0,22.877-0.229,25.589-4.44c0.046-0.046,0.09-0.096,0.13-0.147  c0.284-0.37,0.38-0.851,0.26-1.301l-1.257-4.715c7.707,2.191,10.534,4.915,10.534,6.701C85.199,63.141,70.146,68.245,50,68.245z"/></svg>
