<svg xmlns="http://www.w3.org/2000/svg" xmlns:xlink="http://www.w3.org/1999/xlink" version="1.1" x="0px" y="0px" viewBox="0 0 100 100" enable-background="new 0 0 100 100" xml:space="preserve" fill="#fffff2"><path d="M84.853,59.036c-0.021-3.518-0.219-7.25-0.904-8.432c-0.465-0.8-1.889-1.714-3.76-2.636  c-0.016-0.01-0.029-0.023-0.046-0.032c-0.036-0.02-0.075-0.03-0.112-0.047c-3.341-1.628-8.039-3.272-11.442-4.379l-7.314-10.13  c-1.095-1.748-3.085-2.918-4.974-2.918h-0.755c0.202-0.521,0.323-1.082,0.323-1.673c0-0.828-0.672-1.5-1.5-1.5s-1.5,0.672-1.5,1.5  c0,0.923-0.75,1.673-1.673,1.673h-14.71c-0.922,0-1.671-0.75-1.671-1.673c0-0.828-0.671-1.5-1.5-1.5s-1.5,0.672-1.5,1.5  c0,0.591,0.122,1.151,0.323,1.673h-0.306c-2.232,0-4.317,1.756-4.647,3.915c-0.803,5.247-1.217,7.729-1.428,8.907h-0.894  c-1.009,0-1.923,0.377-2.643,0.979c-0.72-0.603-1.634-0.979-2.643-0.979h-2.405c-2.283,0-4.142,1.858-4.142,4.143v7.298  c0,2.284,1.858,4.143,4.142,4.143h2.405c0.399,0,0.777-0.075,1.143-0.181v0.523c-1.07,0.649-1.794,1.814-1.794,3.154  c0,2.039,1.659,3.698,3.698,3.698h3.084c0.706,3.777,4.022,6.646,8.002,6.646s7.296-2.869,8.002-6.646h22.8  c0.707,3.777,4.022,6.646,8.002,6.646c3.979,0,7.295-2.869,8.001-6.646h2.755c2.039,0,3.697-1.659,3.697-3.698  C86.968,60.895,86.099,59.632,84.853,59.036z M80.171,51.278c0.592,0.323,1.004,0.601,1.17,0.81  c0.176,0.377,0.301,1.428,0.384,2.842c-0.639-0.32-1.255-0.773-1.561-1.394C79.868,52.938,79.876,52.179,80.171,51.278z   M47.488,33.463H56.3c0.846,0,1.92,0.675,2.447,1.536c0.02,0.032,0.041,0.064,0.063,0.095l5.915,8.191H47.488V33.463z   M20.721,54.726c0,0.63-0.513,1.143-1.143,1.143h-2.405c-0.629,0-1.142-0.513-1.142-1.143v-7.298c0-0.63,0.513-1.143,1.142-1.143  h2.405c0.63,0,1.143,0.513,1.143,1.143V54.726z M24.892,63.063h-2.267c-0.385,0-0.698-0.313-0.698-0.698s0.313-0.698,0.698-0.698  h2.267c0.385,0,0.697,0.313,0.697,0.698S25.276,63.063,24.892,63.063z M33.711,69.71c-2.838,0-5.146-2.309-5.146-5.146  s2.309-5.146,5.146-5.146s5.146,2.309,5.146,5.146S36.549,69.71,33.711,69.71z M44.488,63.063h-2.775  c-0.706-3.777-4.022-6.646-8.002-6.646c-2.61,0-4.933,1.239-6.424,3.155c-0.647-0.557-1.478-0.905-2.396-0.905h-1.171v-11.24  c0-0.63,0.513-1.142,1.143-1.142h0.66v7.101c0,0.828,0.671,1.5,1.5,1.5s1.5-0.672,1.5-1.5v-7.101h15.965V63.063z M44.488,43.285  H28.803c0.301-1.73,0.753-4.564,1.347-8.454c0.104-0.678,0.953-1.368,1.683-1.368h12.656V43.285z M72.515,69.71  c-2.838,0-5.146-2.309-5.146-5.146s2.309-5.146,5.146-5.146s5.146,2.309,5.146,5.146S75.353,69.71,72.515,69.71z M72.515,56.417  c-3.979,0-7.295,2.869-8.002,6.646H47.488V46.285h18.604v7.101c0,0.828,0.672,1.5,1.5,1.5s1.5-0.672,1.5-1.5v-6.545  c2.987,1.012,6.034,2.155,8.355,3.151c-0.68,1.82-0.677,3.461,0.033,4.889c0.986,1.979,3.014,2.908,4.353,3.322  c0.002,0.153,0.004,0.309,0.005,0.464h-0.835c-0.824,0-1.58,0.276-2.192,0.736C77.316,57.582,75.05,56.417,72.515,56.417z   M83.271,63.063h-2.267c-0.227,0-0.419-0.116-0.547-0.284c-0.038-0.172-0.082-0.343-0.132-0.512c0.05-0.336,0.328-0.601,0.679-0.601  h2.267c0.385,0,0.697,0.313,0.697,0.698S83.655,63.063,83.271,63.063z M72.515,62.72c-1.019,0-1.845,0.825-1.845,1.844  c0,1.018,0.826,1.844,1.845,1.844s1.844-0.826,1.844-1.844C74.358,63.545,73.533,62.72,72.515,62.72z M33.711,62.72  c-1.019,0-1.845,0.825-1.845,1.844c0,1.018,0.826,1.844,1.845,1.844s1.844-0.826,1.844-1.844  C35.555,63.545,34.729,62.72,33.711,62.72z M53.425,47.559h-2.437c-0.829,0-1.5,0.672-1.5,1.5s0.671,1.5,1.5,1.5h2.437  c0.828,0,1.5-0.672,1.5-1.5S54.253,47.559,53.425,47.559z M32.089,50.559h2.437c0.829,0,1.5-0.672,1.5-1.5s-0.671-1.5-1.5-1.5  h-2.437c-0.828,0-1.5,0.672-1.5,1.5S31.261,50.559,32.089,50.559z M56.007,35.522l-3.982,3.983c-0.586,0.586-0.586,1.535,0,2.121  c0.293,0.293,0.677,0.439,1.061,0.439s0.768-0.146,1.061-0.439l3.982-3.983c0.586-0.586,0.586-1.535,0-2.121  S56.592,34.937,56.007,35.522z M53.096,37.644c0.586-0.586,0.586-1.535,0-2.121s-1.535-0.586-2.121,0l-1.388,1.388  c-0.586,0.586-0.586,1.535,0,2.121c0.293,0.293,0.677,0.439,1.061,0.439s0.768-0.146,1.061-0.439L53.096,37.644z M33.916,41.627  c0.293,0.293,0.677,0.439,1.061,0.439s0.768-0.146,1.061-0.439l3.983-3.983c0.586-0.586,0.586-1.535,0-2.121s-1.535-0.586-2.121,0  l-3.983,3.983C33.33,40.092,33.33,41.041,33.916,41.627z M31.479,39.031c0.293,0.293,0.677,0.439,1.061,0.439  s0.768-0.146,1.061-0.439l1.388-1.388c0.586-0.586,0.586-1.535,0-2.121s-1.535-0.586-2.121,0l-1.388,1.388  C30.894,37.496,30.894,38.445,31.479,39.031z"/></svg>
