<svg xmlns="http://www.w3.org/2000/svg" xmlns:xlink="http://www.w3.org/1999/xlink" version="1.1" x="0px" y="0px" viewBox="0 0 100 100" enable-background="new 0 0 100 100" xml:space="preserve" fill="#fffff2"><path d="M74.229,27.925h-4.934c-1.615-2.939-4.74-4.938-8.325-4.938c-3.584,0-6.709,1.998-8.324,4.938h-4.612l-10.678-4.805  c-0.023-0.011-0.048-0.014-0.071-0.022c-0.06-0.023-0.12-0.04-0.181-0.056c-0.06-0.016-0.119-0.029-0.18-0.036  c-0.061-0.008-0.122-0.009-0.184-0.009c-0.062,0-0.122,0.001-0.184,0.009c-0.061,0.007-0.119,0.021-0.179,0.036  c-0.062,0.016-0.122,0.032-0.182,0.056c-0.023,0.009-0.048,0.012-0.071,0.022l-10.971,4.938c-0.538,0.242-0.884,0.777-0.884,1.367  v46.086c0,0.51,0.258,0.984,0.686,1.26c0.247,0.16,0.53,0.24,0.814,0.24c0.209,0,0.419-0.043,0.616-0.131l10.355-4.66l10.356,4.66  c0.006,0.002,0.012,0.004,0.018,0.006c0.07,0.031,0.146,0.053,0.222,0.072c0.023,0.006,0.045,0.016,0.068,0.021  c0.092,0.02,0.188,0.027,0.286,0.029c0.007,0,0.014,0.002,0.021,0.002c0,0,0,0,0,0h0h26.516c0.828,0,1.5-0.672,1.5-1.5V29.425  C75.729,28.597,75.058,27.925,74.229,27.925z M35.241,69.605l-7.971,3.586V30.395l7.971-3.587V69.605z M46.213,73.191l-7.972-3.586  V26.808l7.972,3.587V73.191z M60.971,25.988c3.581,0,6.494,2.914,6.494,6.495c0,4.619-4.538,8.929-6.494,10.572  c-1.956-1.644-6.493-5.952-6.493-10.572C54.478,28.902,57.391,25.988,60.971,25.988z M72.729,74.012H49.214V30.925h2.402  c-0.084,0.508-0.139,1.025-0.139,1.558c0,7.397,8.264,13.45,8.615,13.704c0.262,0.189,0.57,0.284,0.878,0.284  s0.616-0.095,0.878-0.284c0.352-0.254,8.616-6.307,8.616-13.704c0-0.532-0.055-1.05-0.14-1.558h2.404V74.012z M64.889,32.897  c0-2.159-1.757-3.917-3.917-3.917s-3.917,1.758-3.917,3.917s1.757,3.917,3.917,3.917S64.889,35.056,64.889,32.897z M60.055,32.897  c0-0.506,0.411-0.917,0.917-0.917s0.917,0.411,0.917,0.917s-0.411,0.917-0.917,0.917S60.055,33.403,60.055,32.897z M64.001,49.439  c-0.586-0.586-1.535-0.586-2.121,0l-0.909,0.909l-0.909-0.909c-0.586-0.586-1.535-0.586-2.121,0s-0.586,1.536,0,2.122l0.909,0.908  l-0.909,0.908c-0.586,0.586-0.586,1.535,0,2.121c0.293,0.293,0.677,0.439,1.061,0.439s0.768-0.146,1.061-0.439l0.909-0.908  l0.909,0.908c0.293,0.293,0.677,0.439,1.061,0.439s0.768-0.146,1.061-0.439c0.586-0.586,0.586-1.535,0-2.121l-0.909-0.908  l0.909-0.908C64.587,50.975,64.587,50.025,64.001,49.439z"/></svg>
