<svg xmlns:dc="http://purl.org/dc/elements/1.1/" xmlns:cc="http://creativecommons.org/ns#" xmlns:rdf="http://www.w3.org/1999/02/22-rdf-syntax-ns#" xmlns:svg="http://www.w3.org/2000/svg" xmlns="http://www.w3.org/2000/svg" enable-background="new 0 0 100 100" viewBox="0 0 32 40" version="1.1" x="0px" y="0px"><g transform="translate(0,-1014.3622)"><path style="text-indent:0;text-transform:none;direction:ltr;block-progression:tb;baseline-shift:baseline;color:#000000;enable-background:accumulate;" d="m 15.5,1042.375 0,3 1,0 0,-3 -1,0 z" fill="#fffff2" fill-opacity="1" stroke="none" marker="none" visibility="visible" display="inline" overflow="visible"/><path style="text-indent:0;text-transform:none;direction:ltr;block-progression:tb;baseline-shift:baseline;color:#000000;enable-background:accumulate;" d="m 8.875,1038.875 a 0.50004991,0.50004991 0 0 0 -0.15625,0.9062 l 3.96875,2.9688 a 0.50004991,0.50004991 0 1 0 0.59375,-0.7812 l -3.96875,-3 a 0.50004991,0.50004991 0 0 0 -0.4375,-0.094 z" fill="#fffff2" fill-opacity="1" stroke="none" marker="none" visibility="visible" display="inline" overflow="visible"/><path style="text-indent:0;text-transform:none;direction:ltr;block-progression:tb;baseline-shift:baseline;color:#000000;enable-background:accumulate;" d="m 22.84375,1038.875 a 0.50004991,0.50004991 0 0 0 -0.15625,0.094 l -3.96875,3 a 0.50004991,0.50004991 0 1 0 0.59375,0.7812 l 3.96875,-2.9688 a 0.5031413,0.5031413 0 1 0 -0.4375,-0.9062 z" fill="#fffff2" fill-opacity="1" stroke="none" marker="none" visibility="visible" display="inline" overflow="visible"/><path style="text-indent:0;text-transform:none;direction:ltr;block-progression:tb;baseline-shift:baseline;color:#000000;enable-background:accumulate;" d="M 13.84375,1036.875 A 0.50004997,0.50004997 0 0 0 13.5,1037.2812 l -1,4.9688 a 0.50004997,0.50004997 0 0 0 0.5,0.625 l 6,0 a 0.50004997,0.50004997 0 0 0 0.5,-0.625 l -1,-4.9688 a 0.50872236,0.50872236 0 1 0 -1,0.1876 l 0.875,4.4062 -4.75,0 0.875,-4.4062 a 0.50004997,0.50004997 0 0 0 -0.65625,-0.5938 z" fill="#fffff2" fill-opacity="1" stroke="none" marker="none" visibility="visible" display="inline" overflow="visible"/><path style="text-indent:0;text-transform:none;direction:ltr;block-progression:tb;baseline-shift:baseline;color:#000000;enable-background:accumulate;" d="m 16,1028.375 c -0.939688,0 -1.885298,0.2893 -2.65625,0.8438 l -2.59375,1.875 c -2.2499659,1.6181 -4.3848835,3.3729 -6.375,5.2812 L 2.15625,1038.5 A 0.50004991,0.50004991 0 0 0 2,1038.875 l 0,3 a 0.50004991,0.50004991 0 0 0 0.6875,0.4375 l 10.21875,-4.5 c 1.921642,-0.8505 4.265858,-0.8505 6.1875,0 l 10.21875,4.5 A 0.50004991,0.50004991 0 0 0 30,1041.875 l 0,-3 a 0.50004991,0.50004991 0 0 0 -0.15625,-0.375 l -2.21875,-2.125 c -1.990117,-1.9083 -4.125033,-3.6631 -6.375,-5.2812 l -2.59375,-1.875 C 17.885298,1028.6643 16.939688,1028.375 16,1028.375 z m 0,1.0312 c 0.743507,0 1.483048,0.2083 2.0625,0.625 l 2.59375,1.875 c 2.211962,1.5908 4.325279,3.312 6.28125,5.1876 l 2.0625,2 0,2 -9.5,-4.2188 c -2.1925,-0.9703 -4.8075,-0.9703 -7,0 l -9.5,4.2188 0,-2 2.0625,-2 c 1.95597,-1.8756 4.0692891,-3.5968 6.28125,-5.1876 l 2.59375,-1.875 c 0.579452,-0.4167 1.318993,-0.625 2.0625,-0.625 z" fill="#fffff2" fill-opacity="1" stroke="none" marker="none" visibility="visible" display="inline" overflow="visible"/><path style="text-indent:0;text-transform:none;direction:ltr;block-progression:tb;baseline-shift:baseline;color:#000000;enable-background:accumulate;" d="m 21.34375,1034.375 a 0.49865684,0.49865684 0 0 0 -0.125,0.9062 l 3,2 a 0.50700985,0.50700985 0 1 0 0.5625,-0.8437 l -3,-2 a 0.49865684,0.49865684 0 0 0 -0.4375,-0.063 z" fill="#fffff2" fill-opacity="1" stroke="none" marker="none" visibility="visible" display="inline" overflow="visible"/><path style="opacity:1;fill:#fffff2;fill-opacity:1;stroke:none;stroke-width:0.13229166;stroke-linecap:round;stroke-linejoin:round;stroke-miterlimit:4;stroke-dasharray:none;stroke-dashoffset:0;stroke-opacity:1" d="m 25.5,1037.8622 a 0.49999998,0.49999998 0 0 0 0.5,0.5 0.49999998,0.49999998 0 0 0 0.5,-0.5 0.49999998,0.49999998 0 0 0 -0.5,-0.5 0.49999998,0.49999998 0 0 0 -0.5,0.5 z"/></g></svg>
