<svg xmlns="http://www.w3.org/2000/svg" xmlns:xlink="http://www.w3.org/1999/xlink" version="1.1" x="0px" y="0px" viewBox="0 0 100 100" enable-background="new 0 0 100 100" xml:space="preserve" fill="#fffff2"><path d="M79.11,73.491l-5.388-29.739c6.403-7.964,9.79-17.981,5.147-22.624c-2.493-2.493-6.781-2.832-12.074-0.95  c-3.507,1.246-7.199,3.396-10.552,6.097l-29.737-5.389c-2.575-0.465-6.343,3.503-7.255,6.148c-0.524,1.521-0.292,2.865,0.608,3.766  c0.232,0.232,0.509,0.436,0.829,0.604l21.359,11.254c-2.273,3.383-4.292,6.832-5.844,10.054c-0.084-0.009-0.17-0.014-0.257-0.007  l-11.014,0.844c-0.561,0.044-1.051,0.397-1.268,0.917l-1.705,4.072c-0.158,0.375-0.155,0.799,0.005,1.172  c0.075,0.177,0.184,0.335,0.317,0.468c0.149,0.149,0.328,0.267,0.53,0.343l9.949,3.759c0.103,0.039,0.206,0.064,0.31,0.08  c0.02,0.129,0.031,0.263,0.057,0.386c0,0.001,0,0.001,0,0.002l-2.261,2.261c-0.585,0.586-0.585,1.536,0,2.121  c0.586,0.586,1.536,0.586,2.122,0l2.261-2.262c0.001,0,0.002,0,0.002,0c0.123,0.025,0.258,0.038,0.387,0.056  c0.015,0.104,0.04,0.21,0.079,0.313l3.76,9.947c0.076,0.202,0.193,0.382,0.343,0.53c0.133,0.134,0.291,0.241,0.468,0.317  c0.373,0.161,0.797,0.163,1.172,0.006l4.069-1.703c0.521-0.217,0.874-0.707,0.917-1.269l0.847-11.017  c0.007-0.087,0.002-0.172-0.006-0.257c3.22-1.551,6.667-3.569,10.049-5.841l11.257,21.358c0.169,0.32,0.371,0.599,0.604,0.831  c0.899,0.899,2.244,1.131,3.766,0.606C75.61,79.834,79.578,76.065,79.11,73.491z M22.088,28.75  c-0.071-0.038-0.097-0.067-0.098-0.067c-0.033-0.066-0.058-0.518,0.426-1.386c1.034-1.856,3.041-3.391,3.557-3.458l27.415,4.969  c-0.177,0.169-0.36,0.333-0.533,0.505c-3.068,3.068-6.219,6.864-9.082,10.863L22.088,28.75z M25.329,58.263l0.749-1.792l8.758-0.672  c-0.796,1.981-1.361,3.82-1.64,5.438L25.329,58.263z M43.527,73.919l-1.791,0.75l-2.974-7.868c1.617-0.277,3.456-0.844,5.438-1.641  L43.527,73.919z M38.244,63.875l4.07-4.071c0.586-0.585,0.586-1.535,0-2.121c-0.586-0.585-1.536-0.585-2.121,0l-4.071,4.071  c1.17-7.014,9.918-21.385,18.854-30.321c3.816-3.816,8.491-6.889,12.825-8.429c4.081-1.45,7.343-1.361,8.948,0.245  c3.491,3.491-0.485,14.073-8.184,21.772C59.629,53.958,45.256,62.706,38.244,63.875z M72.708,77.578  c-0.873,0.487-1.326,0.463-1.391,0.432c0.001,0.001-0.026-0.02-0.069-0.099L59.821,56.228c4-2.864,7.796-6.016,10.865-9.084  c0.171-0.171,0.339-0.347,0.508-0.522l4.956,27.31C76.091,74.54,74.56,76.544,72.708,77.578z M73.175,26.82  c-1.463-1.463-3.407-2.268-5.475-2.268c-0.829,0-1.501,0.672-1.5,1.5c0,0.829,0.671,1.5,1.5,1.5c1.266,0,2.457,0.494,3.353,1.389  l0.001,0c0.896,0.896,1.39,2.088,1.39,3.356c0,0.414,0.168,0.789,0.438,1.061c0.271,0.271,0.646,0.439,1.061,0.439  c0.829,0,1.5-0.671,1.5-1.5C75.443,30.23,74.638,28.284,73.175,26.82C73.175,26.821,73.175,26.821,73.175,26.82z"/></svg>
