<svg xmlns="http://www.w3.org/2000/svg" xmlns:xlink="http://www.w3.org/1999/xlink" version="1.1" x="0px" y="0px" viewBox="0 0 100 100" enable-background="new 0 0 100 100" xml:space="preserve" fill="#fffff2"><path d="M80.334,35.061l-7.041-7.084c-0.281-0.283-0.664-0.442-1.063-0.442H57.408v-3.328c0-4.085-3.323-7.408-7.408-7.408  s-7.408,3.323-7.408,7.408v3.328H29.729c-0.829,0-1.5,0.672-1.5,1.5v14.167c0,0.828,0.671,1.5,1.5,1.5h12.862V49.2H27.771  c-0.399,0-0.782,0.159-1.064,0.442l-7.041,7.084c-0.582,0.585-0.582,1.53,0,2.115l7.041,7.083c0.282,0.283,0.665,0.442,1.064,0.442  h14.821v15.334c0,0.828,0.671,1.5,1.5,1.5h11.816c0.828,0,1.5-0.672,1.5-1.5V66.367h12.862c0.828,0,1.5-0.672,1.5-1.5V50.7  c0-0.828-0.672-1.5-1.5-1.5H57.408v-4.499h14.821c0.399,0,0.782-0.159,1.063-0.442l7.041-7.083  C80.916,36.591,80.916,35.646,80.334,35.061z M45.592,24.206c0-2.431,1.978-4.408,4.408-4.408s4.408,1.978,4.408,4.408v3.328h-8.816  V24.206z M54.408,80.201h-8.816V66.367h8.816V80.201z M68.771,63.367H28.395l-5.55-5.583l5.55-5.584h40.376V63.367z M54.408,49.2  h-8.816v-4.499h8.816V49.2z M71.605,41.701H31.229V30.534h40.376l5.55,5.584L71.605,41.701z"/></svg>
