<svg xmlns="http://www.w3.org/2000/svg" xmlns:xlink="http://www.w3.org/1999/xlink" version="1.1" x="0px" y="0px" viewBox="0 0 100 100" enable-background="new 0 0 100 100" xml:space="preserve" fill="#fffff2"><path d="M71.021,17.146c-2.261,0-4.1,1.839-4.1,4.1s1.839,4.1,4.1,4.1s4.1-1.839,4.1-4.1S73.281,17.146,71.021,17.146z   M71.021,22.346c-0.606,0-1.1-0.493-1.1-1.1s0.493-1.1,1.1-1.1s1.1,0.493,1.1,1.1S71.627,22.346,71.021,22.346z M68.421,27.285  c-2.636,0-4.779,2.144-4.779,4.779s2.144,4.779,4.779,4.779S73.2,34.7,73.2,32.064S71.057,27.285,68.421,27.285z M68.421,33.844  c-0.981,0-1.779-0.798-1.779-1.779s0.798-1.779,1.779-1.779s1.779,0.798,1.779,1.779S69.402,33.844,68.421,33.844z M40.946,47.235  l-6.751,6.751c-0.586,0.586-0.586,1.535,0,2.121c0.293,0.293,0.677,0.439,1.061,0.439s0.768-0.146,1.061-0.439l6.751-6.751  c0.586-0.585,0.586-1.536,0-2.121C42.481,46.649,41.532,46.649,40.946,47.235z M36.276,47.235c-0.586-0.586-1.535-0.586-2.121,0  L31.32,50.07c-0.586,0.586-0.586,1.535,0,2.121c0.293,0.293,0.677,0.439,1.061,0.439s0.768-0.146,1.061-0.439l2.835-2.835  C36.862,48.771,36.862,47.821,36.276,47.235z M58.948,40.899V29.93c0-1.519,1.235-2.754,2.753-2.754c0.828,0,1.5-0.671,1.5-1.5  s-0.672-1.5-1.5-1.5c-3.172,0-5.753,2.581-5.753,5.754v10.866H36.999c-6.682,0-12.118,5.436-12.118,12.118v5.853  c0,4.856,3.952,8.808,8.809,8.808h4.096c3.292,0,5.152-2.388,6.263-3.814l0.312-0.396c0.657-0.813,1.7-1.279,2.863-1.279  s2.207,0.467,2.864,1.28l0.311,0.395c1.026,1.317,2.707,3.432,5.55,3.75v8.699c0,2.01-1.635,3.645-3.644,3.645  c-2.01,0-3.645-1.635-3.645-3.645V74.97c1.372-0.286,2.634-0.962,3.647-1.976c0.586-0.586,0.586-1.536,0-2.121  c-0.586-0.586-1.536-0.586-2.122,0c-0.808,0.809-1.883,1.254-3.026,1.254c-1.144,0-2.219-0.445-3.027-1.254  c-0.586-0.586-1.535-0.586-2.121,0s-0.586,1.535,0,2.121c1.014,1.015,2.276,1.689,3.648,1.976v1.239  c0,3.664,2.981,6.645,6.645,6.645c3.663,0,6.644-2.98,6.644-6.645v-8.635h1.81c4.857,0,8.809-3.951,8.809-8.808v-5.853  C69.566,46.741,64.923,41.642,58.948,40.899z M66.566,58.767c0,3.202-2.605,5.808-5.809,5.808h-4.096  c-1.826,0-2.975-1.474-3.897-2.658c-0.121-0.156-0.235-0.303-0.344-0.437c-1.229-1.521-3.124-2.395-5.197-2.395  s-3.968,0.873-5.197,2.394c-0.109,0.135-0.224,0.282-0.345,0.438c-0.922,1.184-2.07,2.657-3.896,2.657h-4.096  c-3.203,0-5.809-2.605-5.809-5.808v-5.853c0-5.028,4.09-9.118,9.118-9.118h20.449c5.027,0,9.118,4.09,9.118,9.118V58.767z"/></svg>
