<svg xmlns="http://www.w3.org/2000/svg" xmlns:xlink="http://www.w3.org/1999/xlink" version="1.1" x="0px" y="0px" viewBox="0 0 100 100" enable-background="new 0 0 100 100" xml:space="preserve" fill="#fffff2"><path d="M50,31.132c0.828,0,1.5-0.671,1.5-1.5v-9.648c0-0.829-0.672-1.5-1.5-1.5s-1.5,0.671-1.5,1.5v9.648  C48.5,30.461,49.172,31.132,50,31.132z M32.127,36.684c0.297,0.354,0.723,0.536,1.15,0.536c0.34,0,0.682-0.115,0.963-0.351  c0.635-0.532,0.718-1.479,0.186-2.113l-6.203-7.392c-0.531-0.634-1.479-0.718-2.113-0.185c-0.635,0.532-0.718,1.479-0.186,2.113  L32.127,36.684z M24.376,52.635c0.714,0,1.347-0.512,1.476-1.238c0.144-0.816-0.401-1.594-1.217-1.739l-8.543-1.505  c-0.816-0.148-1.594,0.4-1.736,1.217c-0.145,0.816,0.4,1.594,1.217,1.738l8.541,1.506C24.201,52.629,24.289,52.635,24.376,52.635z   M66.725,37.219c0.428,0,0.854-0.182,1.15-0.536l6.203-7.392c0.532-0.635,0.449-1.581-0.186-2.113  c-0.634-0.533-1.582-0.45-2.113,0.185l-6.203,7.392c-0.532,0.635-0.449,1.581,0.186,2.113  C66.043,37.104,66.385,37.219,66.725,37.219z M85.646,49.366c-0.145-0.816-0.929-1.359-1.738-1.217l-8.542,1.505  c-0.815,0.145-1.36,0.921-1.217,1.738c0.129,0.729,0.762,1.24,1.476,1.24c0.087,0,0.175-0.008,0.263-0.023l8.542-1.506  C85.245,50.959,85.79,50.182,85.646,49.366z M75.18,61.713c-1.667-0.51-3.418-0.959-5.227-1.357  c0.364-1.541,0.556-3.117,0.556-4.701c0-11.307-9.2-20.506-20.508-20.506s-20.507,9.199-20.507,20.506  c0,1.58,0.191,3.156,0.557,4.701c-1.809,0.398-3.561,0.848-5.227,1.357c-0.793,0.242-1.238,1.082-0.996,1.873  c0.242,0.793,1.08,1.238,1.873,0.996c6.975-2.135,15.376-3.264,24.299-3.264c8.924,0,17.326,1.129,24.301,3.264  c0.146,0.045,0.295,0.064,0.44,0.064c0.642,0,1.235-0.414,1.434-1.061C76.417,62.793,75.972,61.955,75.18,61.713z M67.008,59.77  C61.721,58.818,55.971,58.318,50,58.318s-11.719,0.5-17.004,1.451c-0.328-1.354-0.502-2.732-0.502-4.115  c0-9.653,7.854-17.506,17.507-17.506s17.508,7.854,17.508,17.506C67.509,57.041,67.335,58.42,67.008,59.77z M39.246,67.174  c-0.086-0.824-0.832-1.412-1.646-1.336c-1.583,0.166-3.186,0.365-4.762,0.594c-0.82,0.117-1.389,0.879-1.27,1.699  c0.107,0.746,0.749,1.285,1.482,1.285c0.072,0,0.145-0.006,0.217-0.016c1.537-0.223,3.1-0.418,4.643-0.578  C38.734,68.736,39.333,67.998,39.246,67.174z M67.164,66.432c-7.618-1.107-15.381-1.473-23.072-1.094  c-0.827,0.041-1.465,0.746-1.424,1.572c0.041,0.828,0.748,1.455,1.572,1.424c7.496-0.373,15.066-0.012,22.494,1.066  c0.072,0.01,0.145,0.016,0.217,0.016c0.732,0,1.374-0.539,1.482-1.285C68.553,67.311,67.984,66.551,67.164,66.432z M54.877,75.107  c0.836,0.059,1.518-0.629,1.541-1.457s-0.629-1.518-1.457-1.541c-5.723-0.164-11.523-0.043-17.24,0.359  c-0.826,0.057-1.449,0.773-1.392,1.6c0.056,0.791,0.714,1.396,1.495,1.396c0.035,0,0.07-0.002,0.105-0.004  C43.55,75.068,49.252,74.951,54.877,75.107z M62.283,72.469l-1.051-0.072c-0.815-0.043-1.54,0.574-1.594,1.4  c-0.053,0.828,0.574,1.541,1.4,1.594l1.033,0.07c0.036,0.002,0.072,0.004,0.107,0.004c0.78,0,1.438-0.605,1.494-1.395  C63.732,73.244,63.109,72.525,62.283,72.469z M45.176,78.516h-1.555c-0.828,0-1.5,0.672-1.5,1.5s0.672,1.5,1.5,1.5h1.555  c0.828,0,1.5-0.672,1.5-1.5S46.004,78.516,45.176,78.516z M56.382,78.516h-4.885c-0.829,0-1.5,0.672-1.5,1.5s0.671,1.5,1.5,1.5  h4.885c0.829,0,1.5-0.672,1.5-1.5S57.211,78.516,56.382,78.516z"/></svg>
